<?xml version="1.0" encoding="UTF-8" standalone="no"?>
<!-- Generator: Gravit.io -->

<svg
   xmlns:dc="http://purl.org/dc/elements/1.1/"
   xmlns:cc="http://creativecommons.org/ns#"
   xmlns:rdf="http://www.w3.org/1999/02/22-rdf-syntax-ns#"
   xmlns:svg="http://www.w3.org/2000/svg"
   xmlns="http://www.w3.org/2000/svg"
   xmlns:sodipodi="http://sodipodi.sourceforge.net/DTD/sodipodi-0.dtd"
   xmlns:inkscape="http://www.inkscape.org/namespaces/inkscape"
   style="isolation:isolate"
   viewBox="0 0 286 38.114"
   width="286pt"
   height="38.114pt"
   version="1.1"
   id="svg27"
   sodipodi:docname="ubuntu-cinnamon-wordmark.svg"
   inkscape:version="0.92.4 (5da689c313, 2019-01-14)">
  <metadata
     id="metadata31">
    <rdf:RDF>
      <cc:Work
         rdf:about="">
        <dc:format>image/svg+xml</dc:format>
        <dc:type
           rdf:resource="http://purl.org/dc/dcmitype/StillImage" />
      </cc:Work>
    </rdf:RDF>
  </metadata>
  <sodipodi:namedview
     pagecolor="#ffffff"
     bordercolor="#666666"
     borderopacity="1"
     objecttolerance="10"
     gridtolerance="10"
     guidetolerance="10"
     inkscape:pageopacity="0"
     inkscape:pageshadow="2"
     inkscape:window-width="1920"
     inkscape:window-height="1021"
     id="namedview29"
     showgrid="false"
     showguides="true"
     inkscape:guide-bbox="true"
     inkscape:zoom="2.2814685"
     inkscape:cx="149.02682"
     inkscape:cy="34.175616"
     inkscape:window-x="0"
     inkscape:window-y="27"
     inkscape:window-maximized="1"
     inkscape:current-layer="svg27">
    <sodipodi:guide
       position="129.35747,7.2321842"
       orientation="0,1"
       id="guide33"
       inkscape:locked="false" />
    <sodipodi:guide
       position="126.07011,25.64138"
       orientation="0,1"
       id="guide35"
       inkscape:locked="false" />
  </sodipodi:namedview>
  <defs
     id="defs5">
    <clipPath
       id="_clipPath_YFxg7pDGqq94yeJPJv93E5oTMdcdqTfq">
      <rect
         width="286"
         height="38.114"
         id="rect2" />
    </clipPath>
  </defs>
  <path
     style="fill:#000000"
     inkscape:connector-curvature="0"
     id="path7"
     d="m 14.92,30.424 q -1.136,0.284 -3.019,0.604 -1.847,0.319 -4.299,0.319 -2.131,0 -3.588,-0.603 Q 2.558,30.104 1.67,28.967 0.782,27.83 0.391,26.302 0,24.74 0,22.857 V 12.484 h 3.304 v 9.662 q 0,3.375 1.066,4.832 1.065,1.456 3.588,1.456 0.532,0 1.101,-0.035 0.568,-0.036 1.066,-0.071 0.497,-0.071 0.888,-0.107 0.426,-0.071 0.604,-0.142 V 12.484 h 3.304 v 17.94 z" />
  <path
     style="fill:#000000"
     inkscape:connector-curvature="0"
     id="path9"
     d="m 23.916,13.302 q 0.604,-0.391 1.812,-0.817 1.243,-0.426 2.842,-0.426 1.989,0 3.517,0.71 1.563,0.711 2.629,1.989 1.066,1.279 1.598,3.056 0.569,1.776 0.569,3.907 0,2.238 -0.675,4.05 -0.64,1.776 -1.847,3.02 -1.208,1.243 -2.914,1.918 -1.705,0.675 -3.836,0.675 -2.309,0 -4.086,-0.32 -1.776,-0.319 -2.913,-0.639 V 3.96 l 3.304,-0.568 v 9.911 z m 0,14.778 q 0.498,0.142 1.386,0.285 0.923,0.106 2.273,0.106 2.665,0 4.263,-1.741 1.599,-1.776 1.599,-5.009 0,-1.421 -0.284,-2.664 -0.285,-1.243 -0.924,-2.132 -0.639,-0.923 -1.67,-1.42 -0.994,-0.533 -2.415,-0.533 -1.35,0 -2.487,0.461 -1.137,0.462 -1.741,0.96 z" />
  <path
     style="fill:#000000"
     inkscape:connector-curvature="0"
     id="path11"
     d="m 56.274,30.424 q -1.137,0.284 -3.02,0.604 -1.847,0.319 -4.298,0.319 -2.132,0 -3.588,-0.603 -1.457,-0.64 -2.345,-1.777 -0.888,-1.137 -1.279,-2.664 -0.39,-1.563 -0.39,-3.446 V 12.484 h 3.303 v 9.662 q 0,3.375 1.066,4.832 1.066,1.456 3.588,1.456 0.533,0 1.101,-0.035 0.569,-0.036 1.066,-0.071 0.498,-0.071 0.888,-0.107 0.427,-0.071 0.604,-0.142 V 12.484 h 3.304 z" />
  <path
     style="fill:#000000"
     inkscape:connector-curvature="0"
     id="path13"
     d="m 61.965,13.018 q 1.137,-0.284 3.02,-0.604 1.883,-0.32 4.334,-0.32 2.203,0 3.659,0.64 1.457,0.603 2.309,1.74 0.888,1.102 1.244,2.665 0.355,1.563 0.355,3.446 v 10.373 h -3.304 v -9.663 q 0,-1.705 -0.249,-2.913 -0.213,-1.208 -0.746,-1.954 -0.532,-0.746 -1.421,-1.066 -0.888,-0.355 -2.202,-0.355 -0.533,0 -1.101,0.036 -0.569,0.035 -1.102,0.106 -0.497,0.036 -0.923,0.107 -0.391,0.071 -0.569,0.106 v 15.596 h -3.304 z" />
  <path
     style="fill:#000000"
     inkscape:connector-curvature="0"
     id="path15"
     d="m 85.456,12.485 h 6.998 v 2.771 h -6.998 v 8.526 q 0,1.385 0.213,2.309 0.213,0.888 0.64,1.421 0.426,0.497 1.065,0.71 0.64,0.214 1.492,0.214 1.492,0 2.381,-0.32 0.923,-0.355 1.278,-0.497 l 0.64,2.735 q -0.497,0.249 -1.741,0.604 -1.243,0.391 -2.842,0.391 -1.883,0 -3.126,-0.462 -1.208,-0.498 -1.954,-1.457 -0.746,-0.959 -1.066,-2.344 -0.284,-1.421 -0.284,-3.269 V 7.334 l 3.304,-0.569 z" />
  <path
     style="fill:#000000"
     inkscape:connector-curvature="0"
     id="path17"
     d="m 111.365,30.424 q -1.137,0.284 -3.02,0.604 -1.847,0.319 -4.298,0.319 -2.132,0 -3.588,-0.603 -1.457,-0.64 -2.345,-1.777 Q 97.226,27.83 96.835,26.303 96.444,24.74 96.444,22.857 V 12.484 h 3.304 v 9.662 q 0,3.375 1.066,4.832 1.066,1.456 3.588,1.456 0.533,0 1.101,-0.035 0.569,-0.036 1.066,-0.071 0.497,-0.071 0.888,-0.107 0.426,-0.071 0.604,-0.142 V 12.484 h 3.304 z" />
  <text
     id="text19"
     style="font-style:normal;font-weight:400;font-size:34.69828415px;font-family:Ubuntu;fill:#dd682a;stroke:none;stroke-width:1.02053773"
     x="115.70296"
     y="30.923456">cinnamon</text>
  <path
     style="fill:#dd682a;fill-rule:evenodd"
     inkscape:connector-curvature="0"
     id="path21"
     d="m 277.5,18 c 4.694,0 8.5,-3.806 8.5,-8.5 0,-4.694 -3.806,-8.5 -8.5,-8.5 -4.694,0 -8.5,3.806 -8.5,8.5 0,4.694 3.806,8.5 8.5,8.5 z" />
  <path
     style="fill:#ffffff;fill-rule:evenodd"
     inkscape:connector-curvature="0"
     id="path23"
     d="m 281.197,3.361 -1.955,1.116 c 0.738,0.248 1.404,0.652 1.955,1.174 z m -10.78,6.062 1.972,-1.126 c -0.081,0.363 -0.123,0.74 -0.123,1.126 0,0.387 0.042,0.763 0.123,1.126 z m 2.604,0.065 C 273.02,9.466 273.02,9.445 273.02,9.423 c 0,-0.021 0,-0.043 0.001,-0.064 z m 8.176,5.993 -1.951,-1.113 c 0.737,-0.248 1.401,-0.652 1.951,-1.173 z m -5.393,-9.343 c 0.523,-0.272 1.118,-0.427 1.75,-0.427 1.947,0 3.547,1.464 3.736,3.339 h 0.775 c -0.192,-2.297 -2.138,-4.102 -4.511,-4.102 -0.772,0 -1.5,0.192 -2.136,0.529 z m -1.019,-0.255 0.39,0.669 c -0.84,0.68 -1.375,1.714 -1.375,2.871 0,0.76 0.231,1.465 0.627,2.054 l 3.245,-3.688 0.517,0.914 -3.628,4.077 c -0.94,-0.82 -1.533,-2.02 -1.533,-3.357 0,-1.44 0.688,-2.721 1.757,-3.54 z m 7.28,3.913 h -0.777 c -0.019,0.184 -0.053,0.364 -0.098,0.539 l -1.783,-1.96 -4.289,4.82 c 0.703,0.445 1.539,0.703 2.436,0.703 2.373,0 4.319,-1.805 4.511,-4.102 z" />
</svg>
