<?xml version="1.0" encoding="UTF-8" standalone="no"?><!-- Generator: Gravit.io --><svg xmlns="http://www.w3.org/2000/svg" xmlns:xlink="http://www.w3.org/1999/xlink" style="isolation:isolate" viewBox="0 0 16 16" width="16pt" height="16pt"><defs><clipPath id="_clipPath_JL2XhXxurNWlma7ZOfMbMC8Lz32WKBNi"><rect width="16" height="16"/></clipPath></defs><g clip-path="url(#_clipPath_JL2XhXxurNWlma7ZOfMbMC8Lz32WKBNi)"><path d=" M 0 8 C 0 3.585 3.585 0 8 0 C 12.416 0 16 3.585 16 8 C 16 12.415 12.416 16 8 16 C 3.585 16 0 12.415 0 8 Z  M 5.996 8.478 L 6.723 10.877 L 6.885 9.358 C 6.885 9.358 9.696 6.822 11.298 5.377 C 11.345 5.335 11.352 5.264 11.313 5.214 C 11.274 5.164 11.203 5.152 11.15 5.186 C 9.292 6.372 5.996 8.478 5.996 8.478 L 5.996 8.478 Z  M 10.767 12.238 C 10.906 12.336 11.086 12.361 11.246 12.3 C 11.407 12.239 11.525 12.102 11.56 11.936 C 11.937 10.167 12.85 5.687 13.193 4.078 C 13.219 3.956 13.176 3.83 13.08 3.749 C 12.985 3.668 12.853 3.645 12.735 3.688 C 10.918 4.361 5.322 6.46 3.035 7.307 C 2.89 7.36 2.796 7.5 2.8 7.653 C 2.806 7.806 2.909 7.939 3.057 7.984 C 4.083 8.291 5.429 8.718 5.429 8.718 C 5.429 8.718 6.059 10.618 6.387 11.584 C 6.428 11.705 6.523 11.801 6.648 11.834 C 6.773 11.866 6.906 11.832 6.999 11.744 C 7.526 11.247 8.341 10.477 8.341 10.477 C 8.341 10.477 9.889 11.612 10.767 12.238 L 10.767 12.238 Z " fill-rule="evenodd" fill="rgb(255,255,255)"/></g></svg>